<?xml version="1.0" standalone="no"?>
<!DOCTYPE svg PUBLIC "-//W3C//DTD SVG 20010904//EN"
 "http://www.w3.org/TR/2001/REC-SVG-20010904/DTD/svg10.dtd">
<svg version="1.0" xmlns="http://www.w3.org/2000/svg"
 width="700.000000pt" height="700.000000pt" viewBox="0 0 700.000000 700.000000"
 preserveAspectRatio="xMidYMid meet">
<metadata>
Created by potrace 1.14, written by Peter Selinger 2001-2017
</metadata>
<g transform="translate(0.000000,700.000000) scale(0.100000,-0.100000)"
fill="#000000" stroke="none">
<path d="M1339 5528 c-107 -19 -207 -98 -257 -206 l-27 -57 0 -1840 0 -1840
29 -62 c25 -56 64 -100 139 -160 8 -6 42 -20 76 -30 59 -18 135 -19 2223 -17
1190 0 2173 4 2185 7 126 33 229 137 258 261 9 39 11 488 10 1861 -1 996 -4
1817 -6 1825 -3 9 -17 41 -32 72 -35 72 -110 140 -185 169 l-57 22 -2156 1
c-1186 1 -2176 -2 -2200 -6z m1309 -1236 c282 -283 511 -517 508 -520 -4 -4
-241 -242 -528 -529 l-521 -522 -175 176 -175 175 351 351 352 352 -352 353
-352 353 174 174 c146 146 176 172 189 162 8 -7 246 -243 529 -525z m1915
-1221 c4 -1 7 -79 7 -175 l0 -174 -702 2 -703 1 -1 172 -1 172 26 3 c22 3
1351 1 1374 -1z"/>
</g>
</svg>
